<?xml version="1.0" encoding="UTF-8" standalone="no"?>
<!-- Generator: Adobe Illustrator 14.0.0, SVG Export Plug-In . SVG Version: 6.00 Build 43363)  -->

<svg
   xmlns:dc="http://purl.org/dc/elements/1.1/"
   xmlns:cc="http://creativecommons.org/ns#"
   xmlns:rdf="http://www.w3.org/1999/02/22-rdf-syntax-ns#"
   xmlns:svg="http://www.w3.org/2000/svg"
   xmlns="http://www.w3.org/2000/svg"
   xmlns:xlink="http://www.w3.org/1999/xlink"
   xmlns:sodipodi="http://sodipodi.sourceforge.net/DTD/sodipodi-0.dtd"
   xmlns:inkscape="http://www.inkscape.org/namespaces/inkscape"
   version="1.1"
   id="Capa_1"
   x="0px"
   y="0px"
   width="398.63333"
   height="149.66962"
   viewBox="0 0 398.63333 149.66962"
   enable-background="new 0 0 499.939 499.939"
   xml:space="preserve"
   inkscape:version="0.48.2 r9819"
   sodipodi:docname="Claro.svg"><metadata
   id="metadata34"><rdf:RDF><cc:Work
       rdf:about=""><dc:format>image/svg+xml</dc:format><dc:type
         rdf:resource="http://purl.org/dc/dcmitype/StillImage" /><dc:title></dc:title></cc:Work></rdf:RDF></metadata><defs
   id="defs32">
	
		<radialGradient
   gradientUnits="userSpaceOnUse"
   gradientTransform="matrix(1,0,0,-1,0,2000)"
   r="249.9697"
   cy="1750.0303"
   cx="249.9697"
   id="SVGID_1_">
		<stop
   id="stop6"
   style="stop-color:#FF0A1A"
   offset="0" />
		<stop
   id="stop8"
   style="stop-color:#A10000"
   offset="1" />
	</radialGradient>
	
	
		<linearGradient
   gradientTransform="matrix(1,0,0,-1,0,2000)"
   y2="1966.5293"
   x2="250.06"
   y1="1735.6943"
   x1="250.0601"
   gradientUnits="userSpaceOnUse"
   id="SVGID_2_">
		<stop
   id="stop13"
   style="stop-color:#F2F2F2;stop-opacity:0"
   offset="0" />
		<stop
   id="stop15"
   style="stop-color:#F2F2F2"
   offset="1" />
	</linearGradient>
	
	
		<radialGradient
   gradientUnits="userSpaceOnUse"
   gradientTransform="matrix(1,0,0,-1.1041,0,1945.4158)"
   r="118.7767"
   cy="1420.7539"
   cx="252.07809"
   id="SVGID_3_">
		<stop
   id="stop20"
   style="stop-color:#F2F2F2"
   offset="0" />
		<stop
   id="stop22"
   style="stop-color:#F2F2F2;stop-opacity:0"
   offset="1" />
	</radialGradient>
	
	
<radialGradient
   inkscape:collect="always"
   xlink:href="#SVGID_3_"
   id="radialGradient3036"
   gradientUnits="userSpaceOnUse"
   gradientTransform="matrix(1,0,0,-1.1041,0,1945.4158)"
   cx="252.07809"
   cy="1420.7539"
   r="118.7767" /><linearGradient
   inkscape:collect="always"
   xlink:href="#SVGID_2_"
   id="linearGradient3038"
   gradientUnits="userSpaceOnUse"
   gradientTransform="matrix(1,0,0,-1,0,2000)"
   x1="250.0601"
   y1="1735.6943"
   x2="250.06"
   y2="1966.5293" /><radialGradient
   inkscape:collect="always"
   xlink:href="#SVGID_1_"
   id="radialGradient3040"
   gradientUnits="userSpaceOnUse"
   gradientTransform="matrix(1,0,0,-1,0,2000)"
   cx="249.9697"
   cy="1750.0303"
   r="249.9697" /></defs><sodipodi:namedview
   pagecolor="#ffffff"
   bordercolor="#666666"
   borderopacity="1"
   objecttolerance="10"
   gridtolerance="10"
   guidetolerance="10"
   inkscape:pageopacity="0"
   inkscape:pageshadow="2"
   inkscape:window-width="1600"
   inkscape:window-height="837"
   id="namedview30"
   showgrid="false"
   fit-margin-top="0"
   fit-margin-left="0"
   fit-margin-right="0"
   fit-margin-bottom="0"
   inkscape:zoom="0.94411519"
   inkscape:cx="335.6196"
   inkscape:cy="39.930687"
   inkscape:window-x="-8"
   inkscape:window-y="-8"
   inkscape:window-maximized="1"
   inkscape:current-layer="g26" />
<g
   id="g26"
   transform="translate(-52.760927,-164.154)"
   style="fill:#e12f20;fill-opacity:1">
		<path
   style="fill:#e12f20;fill-opacity:1"
   inkscape:connector-curvature="0"
   id="path28"
   d="m 344.323,164.154 c 5.552,0.058 11.104,0.011 16.657,0.016 0.02,17.018 0.01,34.03 0,51.042 -5.552,0.005 -11.109,0.011 -16.661,0.005 0.004,-17.017 -0.011,-34.04 0.004,-51.063 m 36.859,57.606 c 15.256,-15.747 30.342,-31.684 45.584,-47.452 3.909,4.128 7.941,8.145 11.771,12.357 -15.085,15.889 -30.317,31.62 -45.411,47.495 -4.048,-4.065 -7.963,-8.267 -11.944,-12.4 M 88.999,212.408 c 4.203,-1.007 8.508,-1.571 12.822,-1.397 14.312,-0.343 28.214,7.196 37.081,18.747 4.219,5.467 7.3,11.894 9.008,18.678 -6.558,0.026 -13.115,0.005 -19.672,0.005 -2.89,-5.999 -7.315,-11.339 -13.09,-14.45 -3.183,-1.809 -6.684,-3.011 -10.281,-3.475 -3.358,-0.068 -6.794,-0.369 -10.083,0.517 -5.532,1.25 -10.675,4.275 -14.59,8.54 -5.108,5.009 -8.533,12.057 -8.836,19.417 -0.656,7.012 0.626,14.36 4.456,20.26 3.683,5.651 8.892,10.359 15.06,12.785 10.342,3.985 22.86,1.582 30.781,-6.558 2.667,-2.815 4.976,-6.047 6.653,-9.605 6.527,-0.032 13.054,-0.037 19.586,0 -1.617,7.196 -5.138,13.865 -9.588,19.579 -3.052,3.327 -6.047,6.812 -9.806,9.29 -16.869,12.12 -41.365,11.435 -57.224,-2.267 -4.93,-4.375 -9.437,-9.41 -12.534,-15.388 -5.709,-10.566 -7.133,-23.265 -5.112,-35.101 1.703,-10.032 6.754,-19.273 13.715,-26.343 5.872,-6.371 13.384,-11.179 21.654,-13.234 m 68.902,-1.403 c 6.229,0 12.463,0 18.692,0 -0.005,34.263 0.015,68.524 -0.01,102.786 -6.229,0.016 -12.454,-0.01 -18.683,-0.005 0.001,-34.262 0.001,-68.518 0.001,-102.781 m 56.481,20.46 c 3.542,-0.748 7.168,-0.326 10.75,-0.422 4.153,0.375 8.316,0.997 12.266,2.457 3.961,1.434 8.038,3.231 10.812,6.653 3.259,4.044 4.415,9.421 4.668,14.577 -0.01,19.685 0.016,39.375 -0.01,59.061 -6.32,-0.031 -12.645,0.138 -18.959,-0.084 -0.062,-2.678 0.05,-5.361 -0.041,-8.034 -5.502,4.95 -12.777,7.228 -19.91,7.802 -4.501,0.807 -9.159,0.079 -13.453,-1.423 -5.527,-1.919 -10.079,-6.716 -11.71,-12.568 -1.768,-6.242 -1.399,-13.074 0.667,-19.184 2.243,-6.227 7.648,-10.654 13.59,-12.674 7.612,-2.81 15.751,-3.242 23.623,-4.866 2.722,0 5.415,-1.755 6.425,-4.423 0.728,-2.915 0.097,-6.569 -2.364,-8.419 -2.708,-1.861 -6.017,-2.246 -9.179,-2.341 -2.814,0.089 -5.789,0.121 -8.281,1.676 -3.237,1.914 -4.692,5.72 -5.329,9.358 -6.259,-0.137 -12.524,0.01 -18.783,-0.105 0.778,-6.421 2.066,-13.275 6.482,-18.146 4.626,-5.648 11.795,-8.336 18.736,-8.895 m 13.777,44.437 c -3.698,0.891 -7.34,2.04 -11.1,2.635 -2.991,0.617 -6.138,1.624 -8.265,4.034 -2.955,3.643 -3.172,9.263 -0.879,13.316 0.995,1.861 2.971,2.773 4.809,3.438 5.931,1.196 12.443,-0.733 16.773,-5.172 4.44,-5.793 3.657,-13.639 3.642,-20.576 -1.746,0.58 -3.157,1.978 -4.98,2.325 m 69.278,-42.096 c 3.854,-0.986 7.643,-2.641 11.69,-2.246 0.045,6.653 0.389,13.316 0.257,19.975 -3.444,-0.495 -7.042,-0.896 -10.421,0.18 -7.291,2.104 -13.388,8.81 -14.242,16.771 -0.051,1.755 -0.505,3.468 -0.521,5.229 -0.01,13.364 0.016,26.723 0,40.087 -6.213,-0.016 -12.433,0.047 -18.647,-0.037 -0.07,-26.313 -0.015,-52.634 0.036,-78.952 6.022,-0.058 12.039,0.179 18.055,0.412 0.01,3.248 -0.076,6.5 0.041,9.753 3.522,-4.899 8.143,-9.137 13.752,-11.172 m 46.553,-2.04 c 2.773,-0.29 5.587,-0.564 8.381,-0.327 16.763,0.222 32.064,13.707 36.061,30.53 3.45,13.749 0.096,29.612 -9.882,39.586 -5.774,6.501 -13.696,10.913 -22.098,12.236 -4.051,0.037 -8.103,0.016 -12.149,0.011 -12.093,-1.777 -22.602,-10.391 -28.569,-21.298 -6.199,-11.973 -6.224,-27.15 -0.146,-39.181 5.769,-11.071 16.282,-19.749 28.402,-21.557 m 1.505,19.49 c -5.582,1.318 -10.335,5.403 -13.18,10.517 -4.249,7.449 -3.572,17.603 1.728,24.309 5.396,8.103 16.48,10.844 24.952,6.685 4.925,-2.309 8.684,-6.848 10.776,-11.983 2.318,-5.899 1.899,-12.821 -0.884,-18.467 -2.925,-5.71 -8.295,-10.196 -14.489,-11.223 -2.962,-0.25 -5.968,-0.339 -8.903,0.162 m 55.966,2.968 c 16.641,0 33.287,-0.011 49.933,0.011 -0.011,5.768 0.01,11.54 -0.006,17.313 -16.64,-0.021 -33.276,0.037 -49.917,0.011 -0.026,-5.779 0.02,-11.557 -0.01,-17.335 l 0,0 z" />
	</g>
</svg>