<?xml version="1.0" encoding="utf-8"?>
<!-- Generator: Adobe Illustrator 16.0.0, SVG Export Plug-In . SVG Version: 6.00 Build 0)  -->
<!DOCTYPE svg PUBLIC "-//W3C//DTD SVG 1.1//EN" "http://www.w3.org/Graphics/SVG/1.1/DTD/svg11.dtd">
<svg version="1.1" id="Layer_1" xmlns="http://www.w3.org/2000/svg" xmlns:xlink="http://www.w3.org/1999/xlink" x="0px" y="0px"
	 width="141.982px" height="141.982px" viewBox="0 0 141.982 141.982" enable-background="new 0 0 141.982 141.982"
	 xml:space="preserve">
<g>
	<g>
		<path stroke="#000000" stroke-width="0.25" stroke-miterlimit="10" d="M137.185,132.516c-43.657,0-87.313,0-130.97,0
			c-0.472,0-0.946,0-1.42,0c1.558,1.558,3.113,3.113,4.67,4.669c0-43.658,0-87.313,0-130.969c0-0.475,0-0.948,0-1.421
			c-1.557,1.557-3.112,3.113-4.67,4.67c43.657,0,87.313,0,130.969,0c0.476,0,0.948,0,1.421,0c-1.558-1.557-3.113-3.113-4.669-4.67
			c0,43.657,0,87.313,0,130.969c0,0.476,0,0.949,0,1.421c0,6.025,9.341,6.025,9.341,0c0-43.658,0-87.313,0-130.97
			c0-0.473,0-0.946,0-1.42c0-2.546-2.126-4.67-4.672-4.67c-43.657,0-87.313,0-130.97,0c-0.472,0-0.946,0-1.42,0
			c-2.546,0-4.67,2.125-4.67,4.67c0,43.657,0,87.313,0,130.969c0,0.476,0,0.949,0,1.421c0,2.548,2.125,4.672,4.67,4.672
			c43.657,0,87.313,0,130.969,0c0.476,0,0.948,0,1.421,0C143.208,141.857,143.208,132.516,137.185,132.516z"/>
	</g>
</g>
<rect x="35.557" y="35.558" stroke="#000000" stroke-width="0.25" stroke-miterlimit="10" width="70.867" height="70.866"/>
</svg>
