<?xml version="1.0" encoding="utf-8"?>
<!-- Generator: Adobe Illustrator 16.0.0, SVG Export Plug-In . SVG Version: 6.00 Build 0)  -->
<!DOCTYPE svg PUBLIC "-//W3C//DTD SVG 1.1//EN" "http://www.w3.org/Graphics/SVG/1.1/DTD/svg11.dtd">
<svg version="1.1" id="Layer_1" xmlns="http://www.w3.org/2000/svg" xmlns:xlink="http://www.w3.org/1999/xlink" x="0px" y="0px"
	 width="1064px" height="181px" viewBox="0 0 1064 181" enable-background="new 0 0 1064 181" xml:space="preserve">
<g>
	<g>
		<path fill="#FFFFFF" stroke="#000000" stroke-width="0.25" stroke-miterlimit="10" d="M169.972,156.365
			c-46.738,0-93.475,0-140.213,0c-0.506,0-1.013,0-1.52,0c1.667,1.667,3.333,3.333,5,5c0-46.738,0-93.477,0-140.213
			c0-0.508,0-1.014,0-1.521c-1.667,1.667-3.333,3.333-5,5c46.738,0,93.476,0,140.213,0c0.507,0,1.013,0,1.52,0
			c-1.667-1.667-3.333-3.333-5-5c0,46.738,0,93.476,0,140.213c0,0.507,0,1.015,0,1.521c0,6.449,10,6.449,10,0
			c0-46.738,0-93.476,0-140.214c0-0.506,0-1.012,0-1.52c0-2.726-2.274-5-5-5c-46.738,0-93.475,0-140.213,0c-0.506,0-1.013,0-1.52,0
			c-2.726,0-5,2.274-5,5c0,46.738,0,93.477,0,140.213c0,0.507,0,1.015,0,1.521c0,2.726,2.274,5,5,5c46.738,0,93.476,0,140.213,0
			c0.507,0,1.013,0,1.52,0C176.42,166.365,176.42,156.365,169.972,156.365z"/>
	</g>
</g>
<rect x="66.133" y="55.066" fill="#FFFFFF" stroke="#000000" stroke-width="0.25" stroke-miterlimit="10" width="70.866" height="70.866"/>
<g>
	<path fill="#FFFFFF" stroke="#000000" stroke-width="0.25" stroke-miterlimit="10" d="M706.436,164.497
		c-0.725,0-1.269-0.222-1.63-0.664c-0.363-0.444-0.481-1.059-0.356-1.845l4.635-31.476c0.19-1.398,0.945-2.098,2.271-2.098h7.85
		c5.047,0,8.939,1.321,11.684,3.967c2.744,2.644,4.114,6.354,4.114,11.132c0,2.899-0.377,5.612-1.134,8.137
		c-0.757,2.525-1.908,4.751-3.453,6.679c-1.547,1.928-3.499,3.438-5.864,4.529c-2.365,1.093-5.188,1.638-8.465,1.638
		L706.436,164.497L706.436,164.497z M708.518,160.915h7.661c2.649,0,4.902-0.451,6.762-1.356c1.86-0.904,3.375-2.157,4.541-3.761
		c1.167-1.604,2.025-3.454,2.577-5.554c0.551-2.098,0.828-4.324,0.828-6.68c0-3.753-0.984-6.618-2.955-8.598
		c-1.972-1.979-4.895-2.968-8.773-2.968h-6.386L708.518,160.915z"/>
	<path fill="#FFFFFF" stroke="#000000" stroke-width="0.25" stroke-miterlimit="10" d="M749.663,164.959
		c-3.28,0-5.882-0.981-7.803-2.943c-1.924-1.962-2.886-4.649-2.886-8.062c0-2.695,0.505-5.159,1.514-7.396
		c1.009-2.234,2.429-4.026,4.256-5.374c1.83-1.348,4.004-2.022,6.527-2.022c2.396,0,4.286,0.59,5.676,1.767
		c1.387,1.178,2.332,2.713,2.836,4.605c0.505,1.895,0.646,3.882,0.426,5.962c-0.096,0.581-0.243,0.966-0.449,1.152
		c-0.205,0.188-0.544,0.282-1.016,0.282h-16.033c-0.223,2.66,0.301,4.777,1.561,6.346c1.26,1.569,3.121,2.354,5.58,2.354
		c1.137,0,2.231-0.145,3.288-0.436c1.056-0.29,2.072-0.792,3.048-1.509c0.694-0.479,1.264-0.572,1.704-0.282s0.662,0.75,0.662,1.382
		s-0.315,1.187-0.946,1.663c-1.07,0.819-2.332,1.442-3.781,1.869C752.373,164.745,750.988,164.959,749.663,164.959z
		 M751.224,142.233c-1.671,0-3.06,0.383-4.162,1.151c-1.104,0.768-1.979,1.766-2.625,2.995c-0.646,1.229-1.096,2.507-1.348,3.839h14
		c0.188-2.252-0.167-4.146-1.064-5.683C755.124,143.002,753.524,142.233,751.224,142.233z"/>
	<path fill="#FFFFFF" stroke="#000000" stroke-width="0.25" stroke-miterlimit="10" d="M772.6,164.959
		c-1.512,0-2.956-0.189-4.326-0.564c-1.373-0.375-2.563-0.904-3.572-1.587c-0.472-0.307-0.771-0.69-0.896-1.151
		c-0.127-0.461-0.104-0.887,0.072-1.279c0.171-0.393,0.455-0.648,0.849-0.769c0.396-0.119,0.845-0.024,1.349,0.282
		c0.977,0.649,2.024,1.126,3.145,1.433c1.121,0.308,2.264,0.461,3.431,0.461c1.7,0,3.033-0.364,3.993-1.101
		c0.964-0.733,1.444-1.765,1.444-3.096c0-1.706-1.023-2.814-3.075-3.326l-4.443-1.178c-1.578-0.41-2.814-1.151-3.714-2.227
		c-0.896-1.076-1.346-2.396-1.346-3.966c0-2.219,0.842-4.062,2.53-5.529c1.686-1.467,3.979-2.201,6.881-2.201
		c1.262,0,2.537,0.196,3.83,0.59c1.291,0.393,2.365,0.946,3.216,1.662c0.63,0.479,0.937,1.023,0.92,1.64
		c-0.015,0.614-0.25,1.065-0.707,1.355c-0.459,0.291-1.017,0.213-1.68-0.229c-1.606-1.229-3.518-1.843-5.722-1.843
		c-1.767,0-3.153,0.392-4.162,1.178c-1.009,0.784-1.515,1.842-1.515,3.172c0,0.819,0.229,1.527,0.688,2.124
		c0.455,0.598,1.172,1.015,2.149,1.254l4.493,1.177c1.671,0.446,2.975,1.17,3.903,2.177c0.928,1.006,1.396,2.312,1.396,3.914
		c0,2.389-0.846,4.258-2.53,5.604C777.511,164.285,775.312,164.959,772.6,164.959z"/>
	<path fill="#FFFFFF" stroke="#000000" stroke-width="0.25" stroke-miterlimit="10" d="M794.214,164.959
		c-1.324,0-2.563-0.326-3.713-0.974c-1.152-0.647-2.072-1.536-2.767-2.662c-0.693-1.126-1.039-2.404-1.039-3.839
		c0-2.627,1.03-4.521,3.095-5.681c2.065-1.158,5.368-1.74,9.909-1.74h3.264l0.236-1.536c0.314-1.944,0.078-3.436-0.711-4.478
		c-0.787-1.042-2.173-1.563-4.16-1.563c-1.135,0-2.229,0.12-3.288,0.358c-1.057,0.238-2.104,0.683-3.145,1.332
		c-0.505,0.307-0.962,0.392-1.372,0.255c-0.411-0.136-0.701-0.401-0.875-0.793c-0.175-0.393-0.182-0.812-0.023-1.254
		c0.156-0.444,0.535-0.837,1.135-1.177c1.197-0.717,2.489-1.237,3.878-1.563c1.387-0.323,2.759-0.486,4.114-0.486
		c3.217,0,5.471,0.956,6.764,2.867c1.292,1.912,1.702,4.453,1.229,7.625l-1.938,13.153c-0.189,1.365-0.887,2.048-2.082,2.048
		c-1.23,0-1.732-0.784-1.512-2.354l0.281-1.895c-0.787,1.468-1.844,2.561-3.168,3.275
		C797.004,164.6,795.633,164.959,794.214,164.959z M795.158,161.837c1.705,0,3.232-0.623,4.588-1.869s2.208-2.978,2.555-5.194
		l0.283-1.997h-2.365c-2.428,0-4.342,0.136-5.746,0.41c-1.402,0.272-2.402,0.734-3.001,1.381c-0.601,0.648-0.899,1.536-0.899,2.662
		c0,1.501,0.457,2.646,1.371,3.429C792.856,161.444,793.929,161.837,795.158,161.837z"/>
	<path fill="#FFFFFF" stroke="#000000" stroke-width="0.25" stroke-miterlimit="10" d="M813.509,164.855
		c-1.293,0-1.813-0.801-1.562-2.406l3.075-21.188c0.188-1.331,0.913-1.996,2.175-1.996c0.567,0,1.002,0.204,1.301,0.614
		c0.3,0.408,0.387,0.989,0.262,1.74l-0.332,2.099c0.819-1.466,1.923-2.592,3.311-3.378c1.389-0.784,2.899-1.193,4.541-1.229
		c0.661-0.032,1.125,0.061,1.394,0.282c0.271,0.223,0.405,0.606,0.405,1.151c0,0.717-0.159,1.236-0.475,1.562
		c-0.313,0.325-0.819,0.537-1.511,0.641l-0.948,0.05c-2.552,0.272-4.374,1.101-5.462,2.481c-1.087,1.383-1.806,3.216-2.151,5.502
		l-1.797,12.079C815.574,164.19,814.834,164.855,813.509,164.855z"/>
	<path fill="#FFFFFF" stroke="#000000" stroke-width="0.25" stroke-miterlimit="10" d="M830.439,164.855
		c-1.293,0-1.813-0.801-1.561-2.406l3.073-21.188c0.19-1.331,0.915-1.996,2.177-1.996c0.566,0,1.001,0.204,1.3,0.614
		c0.3,0.408,0.385,0.989,0.259,1.74l-0.331,2.099c0.82-1.466,1.925-2.592,3.313-3.378c1.389-0.784,2.901-1.193,4.541-1.229
		c0.662-0.032,1.125,0.061,1.396,0.282c0.269,0.223,0.4,0.606,0.4,1.151c0,0.717-0.156,1.236-0.473,1.562
		c-0.314,0.325-0.821,0.537-1.514,0.641l-0.945,0.05c-2.555,0.272-4.375,1.101-5.461,2.481c-1.089,1.383-1.808,3.216-2.152,5.502
		l-1.797,12.079C832.505,164.19,831.763,164.855,830.439,164.855z"/>
	<path fill="#FFFFFF" stroke="#000000" stroke-width="0.25" stroke-miterlimit="10" d="M855.505,164.959
		c-3.089,0-5.524-0.981-7.308-2.943c-1.781-1.962-2.672-4.632-2.672-8.01c0-2.798,0.506-5.323,1.515-7.575s2.421-4.026,4.229-5.323
		c1.815-1.297,3.951-1.945,6.41-1.945c3.089,0,5.518,0.982,7.284,2.944c1.764,1.961,2.647,4.631,2.647,8.009
		c0,2.798-0.498,5.316-1.489,7.55c-0.993,2.234-2.405,4.01-4.234,5.322C860.063,164.303,857.932,164.959,855.505,164.959z
		 M855.646,161.631c1.733,0,3.209-0.529,4.423-1.585c1.215-1.059,2.127-2.465,2.744-4.225c0.614-1.756,0.921-3.709,0.921-5.859
		c0-2.456-0.544-4.315-1.631-5.578c-1.087-1.262-2.608-1.895-4.563-1.895c-1.732,0-3.209,0.521-4.425,1.563
		c-1.213,1.04-2.135,2.448-2.765,4.222c-0.632,1.776-0.946,3.736-0.946,5.885c0,2.425,0.551,4.273,1.656,5.555
		C852.163,160.992,853.691,161.631,855.646,161.631z"/>
	<path fill="#FFFFFF" stroke="#000000" stroke-width="0.25" stroke-miterlimit="10" d="M878.537,164.959
		c-2.271,0-3.918-0.727-4.942-2.177c-1.022-1.45-1.332-3.59-0.921-6.424l3.876-26.256c0.19-1.364,0.914-2.046,2.175-2.046
		c0.6,0,1.041,0.212,1.323,0.639c0.287,0.429,0.364,1.033,0.239,1.817l-3.783,25.846c-0.253,1.81-0.128,3.106,0.378,3.891
		c0.503,0.784,1.401,1.178,2.694,1.178c0.441,0,0.781-0.025,1.016-0.077c0.239-0.051,0.435-0.078,0.593-0.078
		c0.252,0,0.441,0.086,0.565,0.256c0.128,0.171,0.191,0.495,0.191,0.973c0,0.647-0.142,1.151-0.426,1.511
		c-0.284,0.357-0.646,0.604-1.089,0.742c-0.22,0.066-0.521,0.117-0.897,0.153C879.151,164.941,878.822,164.959,878.537,164.959z"/>
	<path fill="#FFFFFF" stroke="#000000" stroke-width="0.25" stroke-miterlimit="10" d="M892.537,164.959
		c-2.271,0-3.917-0.727-4.943-2.177c-1.023-1.45-1.331-3.59-0.921-6.424l3.877-26.256c0.19-1.364,0.914-2.046,2.176-2.046
		c0.599,0,1.04,0.212,1.324,0.639c0.285,0.429,0.363,1.033,0.238,1.817l-3.785,25.846c-0.251,1.81-0.126,3.106,0.378,3.891
		c0.505,0.784,1.402,1.178,2.695,1.178c0.44,0,0.781-0.025,1.018-0.077c0.237-0.051,0.436-0.078,0.592-0.078
		c0.253,0,0.44,0.086,0.566,0.256c0.128,0.171,0.19,0.495,0.19,0.973c0,0.647-0.143,1.151-0.427,1.511
		c-0.282,0.357-0.646,0.604-1.087,0.742c-0.221,0.066-0.521,0.117-0.897,0.153C893.151,164.941,892.82,164.959,892.537,164.959z"/>
	<path fill="#FFFFFF" stroke="#000000" stroke-width="0.25" stroke-miterlimit="10" d="M909.563,164.959
		c-3.092,0-5.526-0.981-7.308-2.943s-2.673-4.632-2.673-8.01c0-2.798,0.505-5.323,1.515-7.575c1.009-2.252,2.418-4.026,4.232-5.323
		c1.813-1.297,3.948-1.945,6.407-1.945c3.092,0,5.517,0.982,7.283,2.944c1.766,1.961,2.65,4.631,2.65,8.009
		c0,2.798-0.497,5.316-1.491,7.55c-0.994,2.234-2.403,4.01-4.233,5.322C914.117,164.303,911.988,164.959,909.563,164.959z
		 M909.704,161.631c1.731,0,3.206-0.529,4.422-1.585c1.212-1.059,2.128-2.465,2.743-4.225c0.613-1.756,0.922-3.709,0.922-5.859
		c0-2.456-0.544-4.315-1.633-5.578c-1.088-1.262-2.608-1.895-4.563-1.895c-1.734,0-3.209,0.521-4.421,1.563
		c-1.217,1.04-2.138,2.448-2.767,4.222c-0.633,1.776-0.947,3.736-0.947,5.885c0,2.425,0.552,4.273,1.654,5.555
		C906.221,160.992,907.749,161.631,909.704,161.631z"/>
	<path fill="#FFFFFF" stroke="#000000" stroke-width="0.25" stroke-miterlimit="10" d="M948.908,164.855
		c-1.068,0-1.731-0.716-1.984-2.148l-5.628-32.04c-0.158-0.786-0.063-1.416,0.284-1.895c0.347-0.478,0.852-0.716,1.514-0.716
		c1.04,0,1.67,0.665,1.891,1.995l4.777,28.252l13.335-28.56c0.536-1.126,1.292-1.688,2.272-1.688c0.944,0,1.543,0.733,1.796,2.201
		l4.872,28.354l13.432-28.969c0.473-1.056,1.166-1.585,2.082-1.585c0.756,0,1.268,0.271,1.536,0.818
		c0.268,0.547,0.228,1.213-0.118,1.997l-15.182,32.295c-0.537,1.125-1.343,1.688-2.413,1.688c-1.072,0-1.733-0.716-1.987-2.148
		l-4.823-27.845l-13.29,28.305c-0.283,0.58-0.607,1.006-0.969,1.279C949.942,164.721,949.478,164.855,948.908,164.855z"/>
	<path fill="#FFFFFF" stroke="#000000" stroke-width="0.25" stroke-miterlimit="10" d="M998.05,164.959
		c-3.28,0-5.882-0.981-7.804-2.943c-1.924-1.962-2.885-4.649-2.885-8.062c0-2.695,0.505-5.159,1.514-7.396
		c1.009-2.234,2.43-4.026,4.255-5.374c1.83-1.348,4.005-2.022,6.528-2.022c2.395,0,4.287,0.59,5.674,1.767
		c1.387,1.178,2.334,2.713,2.839,4.605c0.503,1.895,0.646,3.882,0.426,5.962c-0.096,0.581-0.247,0.966-0.451,1.152
		c-0.203,0.188-0.544,0.282-1.017,0.282h-16.032c-0.221,2.66,0.301,4.777,1.562,6.346c1.259,1.569,3.12,2.354,5.579,2.354
		c1.136,0,2.229-0.145,3.287-0.436c1.059-0.29,2.072-0.792,3.052-1.509c0.692-0.479,1.26-0.572,1.701-0.282s0.663,0.75,0.663,1.382
		s-0.313,1.187-0.946,1.663c-1.069,0.819-2.334,1.442-3.783,1.869C1000.761,164.744,999.373,164.959,998.05,164.959z
		 M999.608,142.233c-1.669,0-3.056,0.383-4.161,1.151c-1.104,0.768-1.979,1.766-2.625,2.995c-0.646,1.229-1.096,2.507-1.347,3.839
		h14c0.188-2.252-0.167-4.146-1.067-5.683C1003.512,143.002,1001.91,142.233,999.608,142.233z"/>
	<path fill="#FFFFFF" stroke="#000000" stroke-width="0.25" stroke-miterlimit="10" d="M1024.393,164.959
		c-1.734,0-3.298-0.446-4.683-1.331c-1.39-0.888-2.396-2.252-3.028-4.096l-0.424,3.225c-0.189,1.398-0.899,2.099-2.128,2.099
		c-0.601,0-1.048-0.214-1.349-0.64c-0.3-0.426-0.386-1.032-0.26-1.817l4.73-32.244c0.188-1.398,0.913-2.098,2.175-2.098
		c0.601,0,1.049,0.212,1.349,0.639c0.299,0.429,0.385,1.033,0.261,1.817l-1.941,13.051c0.883-1.363,2-2.438,3.358-3.224
		c1.354-0.784,2.885-1.178,4.588-1.178c2.68,0,4.832,0.956,6.456,2.866c1.622,1.914,2.435,4.505,2.435,7.78
		c0,2.729-0.451,5.246-1.349,7.549c-0.898,2.303-2.206,4.146-3.924,5.529C1028.939,164.268,1026.851,164.959,1024.393,164.959z
		 M1023.918,161.631c1.765,0,3.247-0.529,4.445-1.585c1.197-1.059,2.111-2.465,2.743-4.225c0.63-1.756,0.946-3.709,0.946-5.859
		c0-2.456-0.553-4.315-1.655-5.578c-1.104-1.262-2.618-1.895-4.541-1.895c-1.766,0-3.248,0.521-4.445,1.563
		c-1.198,1.04-2.111,2.448-2.743,4.222c-0.63,1.776-0.947,3.736-0.947,5.885c0,2.425,0.553,4.273,1.657,5.555
		C1020.481,160.992,1021.993,161.631,1023.918,161.631z"/>
</g>
<path fill="#FFFFFF" stroke="#000000" stroke-width="0.25" stroke-miterlimit="10" d="M206.988,23.979h18.992
	c7.439,0,12.715,1.211,15.827,3.635c3.112,2.423,5.078,6.439,5.901,12.05c0.822,5.61,1.234,15.004,1.234,28.181
	c0,13.178-0.412,22.568-1.234,28.179c-0.823,5.609-2.79,9.627-5.901,12.049c-3.112,2.424-8.388,3.635-15.827,3.635h-18.992V23.979z
	 M225.658,98.574c3.791,0,6.366-0.512,7.726-1.531c1.358-1.02,2.253-3.463,2.683-7.332c0.429-3.867,0.644-11.156,0.644-21.868
	c0-10.625-0.215-17.893-0.644-21.804c-0.429-3.909-1.325-6.375-2.683-7.396c-1.359-1.02-3.935-1.529-7.726-1.529h-6.438v61.46
	H225.658z"/>
<path fill="#FFFFFF" stroke="#000000" stroke-width="0.25" stroke-miterlimit="10" d="M304.377,111.707l-3.541-19.893h-18.885
	l-3.433,19.893h-12.34l16.524-87.729h17.705l16.525,87.729H304.377z M291.716,38.389h-0.646l-6.867,40.42h14.271L291.716,38.389z"/>
<path fill="#FFFFFF" stroke="#000000" stroke-width="0.25" stroke-miterlimit="10" d="M371.707,112.152
	c-2.324,0.383-4.524,0.572-6.6,0.572c-6.65,0-11.518-1.252-14.593-3.762c-3.077-2.506-5.115-6.799-6.116-12.877
	c-1.002-6.076-1.502-15.492-1.502-28.244c0-12.58,0.52-21.932,1.556-28.052c1.036-6.121,3.095-10.456,6.171-13.006
	c3.074-2.55,7.902-3.825,14.484-3.825c2.217,0,4.47,0.191,6.76,0.574c2.289,0.383,4.041,0.873,5.26,1.467v12.113
	c-3.792-0.68-7.014-1.02-9.657-1.02c-4.078,0-6.921,0.637-8.53,1.912s-2.646,3.953-3.112,8.033
	c-0.466,4.08-0.696,11.35-0.696,21.805c0,10.456,0.229,17.723,0.696,21.803c0.465,4.082,1.503,6.757,3.112,8.033
	s4.453,1.914,8.53,1.914c3.576,0,6.867-0.34,9.872-1.021v12.113C375.909,111.283,374.031,111.771,371.707,112.152z"/>
<path fill="#FFFFFF" stroke="#000000" stroke-width="0.25" stroke-miterlimit="10" d="M446.76,23.979h18.992
	c7.438,0,12.715,1.211,15.827,3.635c3.11,2.423,5.076,6.439,5.899,12.05c0.822,5.61,1.234,15.004,1.234,28.181
	c0,13.178-0.412,22.569-1.234,28.18c-0.823,5.609-2.79,9.627-5.899,12.049c-3.112,2.422-8.39,3.633-15.827,3.633H446.76V23.979z
	 M465.43,98.572c3.791,0,6.366-0.51,7.726-1.529c1.358-1.02,2.253-3.463,2.685-7.332c0.429-3.867,0.644-11.156,0.644-21.869
	c0-10.625-0.215-17.893-0.644-21.804c-0.431-3.909-1.325-6.375-2.685-7.396c-1.357-1.02-3.935-1.529-7.726-1.529h-6.438v61.459
	H465.43z"/>
<path fill="#FFFFFF" stroke="#000000" stroke-width="0.25" stroke-miterlimit="10" d="M519.83,111.707V23.979h35.196v13.135h-22.962
	V60.83h19.853v13.134h-19.853v24.608h22.962v13.135H519.83z"/>
<path fill="#FFFFFF" stroke="#000000" stroke-width="0.25" stroke-miterlimit="10" d="M595.475,111.707l-15.451-87.729h12.555
	l11.59,71.662h0.752l11.479-71.662h12.232l-15.451,87.729H595.475z"/>
<path fill="#FFFFFF" stroke="#000000" stroke-width="0.25" stroke-miterlimit="10" d="M656.205,111.707V23.979h35.193v13.135
	h-22.961V60.83h19.852v13.134h-19.852v24.608h22.961v13.135H656.205z"/>
<path fill="#FFFFFF" stroke="#000000" stroke-width="0.25" stroke-miterlimit="10" d="M721.549,111.707V23.979h12.23v74.211h20.389
	v13.518H721.549z"/>
<path fill="#FFFFFF" stroke="#000000" stroke-width="0.25" stroke-miterlimit="10" d="M787.537,108.965
	c-3.074-2.506-5.008-6.631-5.795-12.367c-0.787-5.738-1.18-15.322-1.18-28.755c0-13.43,0.393-23.016,1.18-28.753
	c0.787-5.738,2.721-9.859,5.795-12.369c3.074-2.506,8.227-3.762,15.451-3.762c7.227,0,12.375,1.255,15.451,3.762
	c3.074,2.508,5.025,6.652,5.85,12.432c0.82,5.783,1.232,15.346,1.232,28.69c0,13.347-0.412,22.91-1.232,28.69
	c-0.822,5.781-2.773,9.926-5.85,12.432c-3.076,2.508-8.227,3.762-15.451,3.762C795.762,112.727,790.611,111.473,787.537,108.965z
	 M810.178,97.998c1.287-1.061,2.127-3.611,2.52-7.648c0.395-4.037,0.592-11.541,0.592-22.507c0-10.966-0.197-18.467-0.592-22.505
	c-0.393-4.037-1.23-6.587-2.52-7.65c-1.287-1.063-3.688-1.595-7.189-1.595c-3.504,0-5.885,0.532-7.135,1.595
	c-1.254,1.063-2.076,3.592-2.469,7.586c-0.396,3.998-0.59,11.521-0.59,22.569c0,11.052,0.193,18.576,0.59,22.57
	c0.393,3.996,1.215,6.525,2.469,7.585c1.25,1.064,3.629,1.594,7.135,1.594C806.492,99.592,808.891,99.063,810.178,97.998z"/>
<path fill="#FFFFFF" stroke="#000000" stroke-width="0.25" stroke-miterlimit="10" d="M856.637,23.979h23.176
	c5.078,0,8.924,1.129,11.535,3.379c2.611,2.254,4.363,5.42,5.258,9.5s1.342,9.479,1.342,16.195c0,6.461-0.43,11.752-1.289,15.875
	c-0.855,4.123-2.629,7.375-5.311,9.754c-2.682,2.381-6.6,3.568-11.75,3.568h-10.729v29.457h-12.23L856.637,23.979L856.637,23.979z
	 M876.701,69.119c2.789,0,4.791-0.426,6.01-1.275c1.217-0.849,2.002-2.337,2.359-4.463c0.357-2.124,0.537-5.566,0.537-10.328
	c0-4.674-0.18-8.074-0.537-10.201c-0.357-2.123-1.145-3.611-2.359-4.463c-1.219-0.849-3.186-1.274-5.9-1.274h-7.939v32.005H876.701z
	"/>
<path fill="#FFFFFF" stroke="#000000" stroke-width="0.25" stroke-miterlimit="10" d="M927.021,111.707V23.979h35.195v13.135
	h-22.963V60.83h19.852v13.134h-19.852v24.608h22.963v13.135H927.021z"/>
<path fill="#FFFFFF" stroke="#000000" stroke-width="0.25" stroke-miterlimit="10" d="M1023.053,111.707l-7.939-32.005h-10.516
	v32.005h-12.232V23.979h23.82c5.15,0,9.031,1.064,11.643,3.188c2.611,2.126,4.363,5.144,5.26,9.054
	c0.895,3.91,1.342,9.096,1.342,15.555c0,6.293-0.521,11.521-1.559,15.685c-1.037,4.166-3.131,7.226-6.275,9.181l9.336,35.064
	L1023.053,111.707L1023.053,111.707z M1019.191,65.357c1.215-0.808,2.021-2.209,2.414-4.209c0.393-1.996,0.59-5.119,0.59-9.371
	c0-4.25-0.197-7.353-0.59-9.309c-0.395-1.955-1.199-3.335-2.414-4.144c-1.219-0.808-3.186-1.211-5.902-1.211h-8.689v29.454h8.689
	C1016.006,66.568,1017.973,66.166,1019.191,65.357z"/>
</svg>
